<?xml version="1.0" standalone="no"?><!DOCTYPE svg PUBLIC "-//W3C//DTD SVG 1.1//EN" "http://www.w3.org/Graphics/SVG/1.1/DTD/svg11.dtd"><svg t="1572416399580" class="icon" viewBox="0 0 1024 1024" version="1.1" xmlns="http://www.w3.org/2000/svg" p-id="2725" xmlns:xlink="http://www.w3.org/1999/xlink" width="32" height="32"><defs><style type="text/css"></style></defs><path d="M544.133 176.096l355.79 604.577c10.282 17.472 4.453 39.972-13.019 50.255A36.708 36.708 0 0 1 868.286 836H156.708C136.435 836 120 819.565 120 799.291a36.71 36.71 0 0 1 5.072-18.618L480.86 176.096c10.282-17.472 32.782-23.3 50.254-13.018" fill="#E28723" p-id="2726"></path><path d="M549.326 154.23a63.013 63.013 0 0 1 17.028 18.83l346.929 589.02c17.66 29.984 7.638 68.587-22.383 86.224A63.128 63.128 0 0 1 858.924 857H165.066C130.236 857 102 828.8 102 794.015a62.923 62.923 0 0 1 8.707-31.934l346.93-589.02c16.62-28.22 51.837-38.745 80.952-25.182l5.382 2.827 5.355 3.524z m-30.101 31.047c-9.355-3.434-20.117 0.19-25.35 9.073L146.946 783.37a20.974 20.974 0 0 0-2.902 10.645c0 11.595 9.412 20.995 21.022 20.995h693.858c3.748 0 7.428-1 10.659-2.899 10.007-5.879 13.347-18.746 7.46-28.74L530.116 194.35a21.002 21.002 0 0 0-4.56-5.399l-2.901-2.052-3.43-1.622z" fill="#FFA447" p-id="2727"></path><path d="M475.805 609.778L463 374h83.661l-12.805 235.778h-58.05zM505.165 752C474.378 752 463 745.964 463 704.467c0-40.742 11.378-47.533 42.165-47.533 30.788 0 42.835 6.79 42.835 47.533C548 745.964 535.953 752 505.165 752z" fill="#FFFFFF" p-id="2728"></path></svg>